<?xml version="1.0" encoding="utf-8"?>
<!-- Generator: Adobe Illustrator 21.1.0, SVG Export Plug-In . SVG Version: 6.00 Build 0)  -->
<svg version="1.1" id="Слой_1" xmlns="http://www.w3.org/2000/svg" xmlns:xlink="http://www.w3.org/1999/xlink" x="0px" y="0px"
     viewBox="0 0 239.2 46.6" style="enable-background:new 0 0 239.2 46.6;" xml:space="preserve">
<style type="text/css">
	.st0{fill:#23485f;}
	.st1{fill:#23485f;stroke:#085EAB;stroke-width:0.25;stroke-miterlimit:10;}
	.st2{fill:#23485f;}
	.st3{fill:#C9D0D8;}
</style>
  <g>
	<rect x="23" class="st0" width="4.8" height="46.6"/>
    <g>
		<path class="st1" d="M56.4,29.6V13c0-0.4-0.1-0.7-0.2-0.9s-0.4-0.3-0.7-0.4v-0.5h4.2v0.5c-0.4,0.1-0.6,0.2-0.7,0.4
			s-0.2,0.5-0.2,0.9v16.5c0,0.4,0.1,0.7,0.2,0.9s0.4,0.3,0.8,0.4v0.5h-4.2v-0.5c0.4-0.1,0.6-0.2,0.8-0.4S56.4,30,56.4,29.6z"/>
      <path class="st1" d="M66.3,17.5v12.2c0,0.4,0.1,0.7,0.2,0.9s0.4,0.3,0.8,0.4v0.4h-3.6V31c0.4-0.1,0.6-0.2,0.8-0.4s0.2-0.5,0.2-0.9
			V16.5c0-0.4-0.1-0.7-0.2-0.9s-0.4-0.3-0.7-0.4v-0.4h5.3v0.4c-0.5,0.2-0.8,0.4-0.8,0.8c0,0.3,0.2,0.6,0.6,1.1l9.7,10.8V16.5
			c0-0.4-0.1-0.7-0.2-0.9s-0.4-0.3-0.7-0.4v-0.4h3.6v0.4c-0.4,0.1-0.6,0.2-0.7,0.4s-0.2,0.5-0.2,0.9v13.1c0,0.4,0.1,0.7,0.2,0.9
			s0.4,0.3,0.8,0.4v0.4h-4.3v-0.4c0.5-0.1,0.8-0.3,0.8-0.6c0-0.2-0.2-0.6-0.7-1.1L66.3,17.5z"/>
      <path class="st1" d="M92.2,16.6v13.1c0,0.4,0.1,0.7,0.2,0.9s0.4,0.3,0.8,0.4v0.4h-4V31c0.4-0.1,0.6-0.2,0.7-0.4s0.2-0.5,0.2-0.9
			V16.6h-5.3c-0.4,0-0.7,0.1-0.9,0.2s-0.3,0.4-0.4,0.8h-0.4v-3.5h0.4c0.1,0.4,0.2,0.6,0.4,0.7s0.5,0.2,0.9,0.2h12.8
			c0.4,0,0.7-0.1,0.9-0.2s0.3-0.4,0.4-0.7h0.4v3.4h-0.4c-0.1-0.4-0.2-0.6-0.4-0.8s-0.5-0.2-0.9-0.2L92.2,16.6L92.2,16.6z"/>
      <path class="st1" d="M104.6,23.6v6.1h10.1c0.4,0,0.7-0.1,0.9-0.2s0.3-0.4,0.4-0.8h0.4v3.5H116c-0.1-0.4-0.2-0.6-0.4-0.7
			s-0.5-0.2-0.9-0.2h-13.2v-0.4c0.4-0.1,0.6-0.2,0.8-0.4s0.2-0.5,0.2-0.9V16.5c0-0.4-0.1-0.7-0.2-0.9s-0.4-0.3-0.7-0.4v-0.4h13.1
			c0.4,0,0.7-0.1,0.9-0.2s0.3-0.4,0.4-0.7h0.4v3.5H116c-0.1-0.4-0.2-0.6-0.4-0.8s-0.5-0.2-0.9-0.2h-10v5.5h6.4
			c0.4,0,0.7-0.1,0.9-0.2s0.3-0.4,0.4-0.7h0.4v3.5h-0.4c-0.1-0.4-0.2-0.6-0.4-0.8s-0.5-0.2-0.9-0.2L104.6,23.6L104.6,23.6z"/>
      <path class="st1" d="M122.5,29.7h10c0.4,0,0.7-0.1,0.9-0.2c0.2-0.1,0.3-0.4,0.4-0.8h0.4v3.5h-0.4c-0.1-0.4-0.2-0.6-0.4-0.7
			c-0.2-0.1-0.5-0.2-0.9-0.2h-13v-0.4c0.4-0.1,0.6-0.2,0.7-0.4s0.2-0.5,0.2-0.9V16.5c0-0.4-0.1-0.7-0.2-0.9s-0.4-0.3-0.7-0.4v-0.4h4
			v0.4c-0.4,0.1-0.6,0.2-0.7,0.4s-0.2,0.5-0.2,0.9v13.2H122.5z"/>
      <path class="st1" d="M139.3,29.7h10c0.4,0,0.7-0.1,0.9-0.2c0.2-0.1,0.3-0.4,0.4-0.8h0.4v3.5h-0.4c-0.1-0.4-0.2-0.6-0.4-0.7
			c-0.2-0.1-0.5-0.2-0.9-0.2h-13v-0.4c0.4-0.1,0.6-0.2,0.7-0.4c0.1-0.2,0.2-0.5,0.2-0.9V16.5c0-0.4-0.1-0.7-0.2-0.9
			c-0.1-0.2-0.4-0.3-0.7-0.4v-0.4h4v0.4c-0.4,0.1-0.6,0.2-0.7,0.4c-0.1,0.2-0.2,0.5-0.2,0.9v13.2H139.3z"/>
      <path class="st1" d="M153.9,29.6V16.5c0-0.4-0.1-0.7-0.2-0.9c-0.1-0.2-0.4-0.3-0.7-0.4v-0.4h4v0.4c-0.4,0.1-0.6,0.2-0.7,0.4
			c-0.1,0.2-0.2,0.5-0.2,0.9v13.1c0,0.4,0.1,0.7,0.2,0.9c0.1,0.2,0.4,0.3,0.7,0.4v0.4h-4v-0.4c0.4-0.1,0.6-0.2,0.7-0.4
			C153.8,30.3,153.9,30,153.9,29.6z"/>
      <path class="st1" d="M182,13l-2.2,3.6l-0.4-0.2c0.1-0.3,0.1-0.5,0.1-0.7c0-0.4-0.6-0.9-1.9-1.5c-1.7-0.8-3.6-1.3-5.6-1.3
			c-2.7,0-5,0.8-6.7,2.3c-1.7,1.5-2.6,3.5-2.6,6c0,2.4,0.9,4.5,2.7,6.1c1.7,1.6,3.9,2.4,6.4,2.4s4.7-0.7,6.6-2.2
			c0.9-0.7,1.3-1.1,1.3-1.4c0-0.1-0.1-0.4-0.2-0.7l0.4-0.3l2.6,3.2l-0.4,0.3c-0.3-0.2-0.5-0.4-0.7-0.4c-0.1,0-0.3,0.1-0.6,0.3
			c-0.9,0.7-1.6,1.2-2.2,1.5c-0.6,0.3-1.2,0.6-1.9,0.9c-1.5,0.5-3.1,0.7-4.8,0.7c-3.4,0-6.1-0.9-8.2-2.8c-2.2-2-3.3-4.5-3.3-7.5
			c0-2.4,0.7-4.5,2.1-6.2c2.2-2.8,5.4-4.1,9.7-4.1c2.9,0,5.6,0.8,8.3,2.3c0.2,0.1,0.3,0.1,0.4,0.1s0.4-0.2,0.7-0.6L182,13z"/>
      <path class="st1" d="M189,23.6v6.1h10.1c0.4,0,0.7-0.1,0.9-0.2c0.2-0.1,0.3-0.4,0.4-0.8h0.4v3.5h-0.4c-0.1-0.4-0.2-0.6-0.4-0.7
			c-0.2-0.1-0.5-0.2-0.9-0.2h-13.2v-0.4c0.4-0.1,0.6-0.2,0.8-0.4c0.2-0.2,0.2-0.5,0.2-0.9V16.5c0-0.4-0.1-0.7-0.2-0.9
			c-0.1-0.2-0.4-0.3-0.7-0.4v-0.4h13.1c0.4,0,0.7-0.1,0.9-0.2c0.2-0.1,0.3-0.4,0.4-0.7h0.4v3.5h-0.4c-0.1-0.4-0.2-0.6-0.4-0.8
			c-0.2-0.2-0.5-0.2-0.9-0.2h-10v5.5h6.4c0.4,0,0.7-0.1,0.9-0.2c0.2-0.1,0.3-0.4,0.4-0.7h0.4v3.5h-0.4c-0.1-0.4-0.2-0.6-0.4-0.8
			c-0.2-0.2-0.5-0.2-0.9-0.2L189,23.6L189,23.6z"/>
      <path class="st1" d="M206.8,23.6v6.1h10.1c0.4,0,0.7-0.1,0.9-0.2c0.2-0.1,0.3-0.4,0.4-0.8h0.4v3.5h-0.4c-0.1-0.4-0.2-0.6-0.4-0.7
			c-0.2-0.1-0.5-0.2-0.9-0.2h-13.2v-0.4c0.4-0.1,0.6-0.2,0.8-0.4c0.2-0.2,0.2-0.5,0.2-0.9V16.5c0-0.4-0.1-0.7-0.2-0.9
			c-0.1-0.2-0.4-0.3-0.7-0.4v-0.4h13.1c0.4,0,0.7-0.1,0.9-0.2c0.2-0.1,0.3-0.4,0.4-0.7h0.4v3.5h-0.5c-0.1-0.4-0.2-0.6-0.4-0.8
			c-0.2-0.2-0.5-0.2-0.9-0.2h-10v5.5h6.4c0.4,0,0.7-0.1,0.9-0.2c0.2-0.1,0.3-0.4,0.4-0.7h0.4v3.5h-0.4c-0.1-0.4-0.2-0.6-0.4-0.8
			c-0.2-0.2-0.5-0.2-0.9-0.2L206.8,23.6L206.8,23.6z"/>
      <path class="st1" d="M222.6,29.6V16.5c0-0.4-0.1-0.7-0.2-0.9s-0.4-0.3-0.8-0.4v-0.4h8.3c2.2,0,3.9,0.3,5,0.8
			c1.3,0.7,2.4,1.7,3.2,3.3c0.7,1.3,1,2.7,1,4.2c0,1.7-0.4,3.3-1.3,4.8c-0.8,1.3-1.7,2.1-2.9,2.7s-2.8,0.8-4.9,0.8h-8.3V31
			c0.4-0.1,0.6-0.2,0.8-0.4S222.6,30,222.6,29.6z M224.7,29.7h5.1c1.9,0,3.4-0.3,4.3-0.8c1-0.6,1.7-1.5,2.2-2.7
			c0.4-0.9,0.5-2,0.5-3.1c0-2-0.5-3.6-1.5-4.8c-0.6-0.7-1.3-1.1-2.1-1.4s-2-0.4-3.4-0.4h-5.1V29.7z"/>
	</g>
    <rect x="8.2" y="3.4" class="st2" width="2.9" height="21"/>
    <rect y="11.5" class="st2" width="2.9" height="12.1"/>
    <rect x="16" y="0.6" class="st2" width="3" height="34.8"/>
    <rect x="32" y="3.4" class="st2" width="2.9" height="35"/>
    <rect x="40" y="17.6" class="st2" width="2.9" height="13.7"/>
    <g>
		<path class="st3" d="M26.1,1.9v4.8h-1.2V4.1c0-0.4,0-0.6,0-0.7c0-0.1-0.1-0.1-0.1-0.2c-0.1,0-0.3-0.1-0.5-0.1h-0.2V2.5
			c0.6-0.1,1-0.4,1.3-0.8h0.7V1.9z"/>
	</g>
    <g>
		<path class="st3" d="M26.1,8.4v4.8h-1.2v-2.6c0-0.4,0-0.6,0-0.7c0-0.1-0.1-0.1-0.1-0.2c-0.1,0-0.3-0.1-0.5-0.1h-0.2V9
			c0.6-0.1,1-0.4,1.3-0.8h0.7V8.4z"/>
	</g>
    <g>
		<path class="st3" d="M26.1,27.5v4.8h-1.2v-2.6c0-0.4,0-0.6,0-0.7s-0.1-0.1-0.1-0.2c-0.1,0-0.3-0.1-0.5-0.1h-0.2v-0.6
			c0.6-0.1,1-0.4,1.3-0.8h0.7V27.5z"/>
	</g>
    <g>
		<path class="st3" d="M26.8,16.2v1.6c0,0.4,0,0.6-0.1,0.8s-0.1,0.3-0.2,0.5c-0.1,0.1-0.3,0.2-0.4,0.3s-0.4,0.1-0.6,0.1
			c-0.3,0-0.5,0-0.7-0.1s-0.3-0.2-0.5-0.3c-0.1-0.1-0.2-0.3-0.2-0.4c0-0.2-0.1-0.4-0.1-0.7v-1.7c0-0.4,0-0.8,0.1-1s0.2-0.4,0.5-0.5
			c0.2-0.1,0.5-0.2,0.8-0.2s0.5,0,0.7,0.1s0.4,0.2,0.5,0.3s0.2,0.3,0.2,0.4C26.8,15.6,26.8,15.9,26.8,16.2z M25.6,15.8
			c0-0.3,0-0.4,0-0.5s-0.1-0.1-0.2-0.1c-0.1,0-0.1,0-0.2,0.1s0,0.2,0,0.5v2.3c0,0.3,0,0.4,0,0.5s0.1,0.1,0.2,0.1
			c0.1,0,0.1,0,0.2-0.1c0-0.1,0-0.2,0-0.5V15.8z"/>
	</g>
    <g>
		<path class="st3" d="M26.8,22.5v1.6c0,0.4,0,0.6-0.1,0.8c0,0.2-0.1,0.3-0.2,0.5c-0.1,0.1-0.3,0.2-0.4,0.3
			c-0.2,0.1-0.4,0.1-0.6,0.1c-0.3,0-0.5,0-0.7-0.1s-0.3-0.2-0.5-0.3c-0.1-0.1-0.2-0.3-0.2-0.4c0-0.2-0.1-0.4-0.1-0.7v-1.8
			c0-0.4,0-0.8,0.1-1s0.2-0.4,0.5-0.5c0.2-0.1,0.5-0.2,0.8-0.2s0.5,0,0.7,0.1s0.4,0.2,0.5,0.3c0.1,0.1,0.2,0.3,0.2,0.4
			C26.8,21.9,26.8,22.2,26.8,22.5z M25.6,22.1c0-0.3,0-0.4,0-0.5s-0.1-0.1-0.2-0.1c-0.1,0-0.1,0-0.2,0.1s0,0.2,0,0.5v2.4
			c0,0.3,0,0.4,0,0.5s0.1,0.1,0.2,0.1c0.1,0,0.1,0,0.2-0.1c0-0.1,0-0.2,0-0.5V22.1z"/>
	</g>
    <g>
		<path class="st3" d="M26.8,35.3v1.6c0,0.4,0,0.6-0.1,0.8s-0.1,0.3-0.2,0.5s-0.3,0.2-0.4,0.3s-0.4,0-0.6,0c-0.3,0-0.5,0-0.7-0.1
			s-0.3-0.2-0.4-0.3s-0.3-0.3-0.3-0.4S24,37.3,24,37v-1.7c0-0.4,0-0.8,0.1-1s0.2-0.4,0.4-0.5s0.5-0.2,0.8-0.2s0.5,0,0.7,0.1
			s0.4,0.2,0.5,0.3s0.2,0.3,0.2,0.4S26.8,34.9,26.8,35.3z M25.6,34.9c0-0.3,0-0.4,0-0.5s-0.1-0.1-0.2-0.1c-0.1,0-0.1,0-0.2,0.1
			s0,0.2,0,0.5v2.3c0,0.3,0,0.4,0,0.5s0.1,0.1,0.2,0.1s0.1,0,0.2-0.1s0-0.2,0-0.4V34.9z"/>
	</g>
    <g>
		<path class="st3" d="M26.6,41.5v1.6c0,0.4,0,0.6-0.1,0.8s-0.1,0.3-0.2,0.5s-0.3,0.2-0.4,0.3s-0.4,0.1-0.6,0.1
			c-0.3,0-0.5,0-0.7-0.1s-0.4-0.2-0.5-0.4s-0.2-0.3-0.2-0.4s-0.1-0.4-0.1-0.7v-1.7c0-0.4,0-0.8,0.1-1s0.2-0.4,0.4-0.5
			s0.5-0.2,0.8-0.2s0.5,0,0.7,0.1s0.4,0.2,0.5,0.3s0.2,0.3,0.2,0.4S26.6,41.1,26.6,41.5z M25.4,41.1c0-0.3,0-0.4,0-0.5
			s-0.1-0.1-0.2-0.1c-0.1,0-0.1,0-0.2,0.1s0,0.2,0,0.5v2.3c0,0.3,0,0.4,0,0.5s0.1,0.1,0.2,0.1s0.1,0,0.2-0.1s0-0.2,0-0.4V41.1z"/>
	</g>
</g>
</svg>
