<?xml version="1.0" standalone="no"?><!-- Generator: Gravit.io --><svg xmlns="http://www.w3.org/2000/svg" xmlns:xlink="http://www.w3.org/1999/xlink" style="isolation:isolate" viewBox="0 0 486 306" width="486" height="306"><defs><clipPath id="_clipPath_jDIojOfN5R6uHHY6Gxy1WmbIJY4PiUHR"><rect width="486" height="306"/></clipPath></defs><g clip-path="url(#_clipPath_jDIojOfN5R6uHHY6Gxy1WmbIJY4PiUHR)"><g id="normal"><path d=" M 250.972 2.591 C 288.394 -5.568 337.157 3.627 378.139 57.982 C 386.586 69.975 395.793 106.548 394.874 121.157 C 414.479 118.448 441.693 129.09 457.791 142.215 C 506.213 181.694 493.181 290.909 411.186 306 C 328.396 306 143.121 306 89.613 306 C -14.359 306 -39.028 146.99 75.632 121.157 C 77.768 55.397 133.041 34.674 182.823 55.643 C 187.248 42.361 220.119 8.022 250.972 2.591 Z  M 201.465 282.603 L 201.465 224.111 L 171.172 224.111 L 171.172 221.772 L 243.409 139.879 Q 279.525 180.822 315.646 221.772 L 315.646 224.111 L 285.353 224.111 L 285.353 282.603 C 315.685 282.603 348.859 282.779 378.139 282.779 C 411.526 280.812 439.851 274.126 453.13 254.525 C 491.757 197.508 436.194 122.393 369.242 146.895 C 392.575 56.328 312.893 11.458 251.951 27.088 C 221.48 34.904 195.695 59.033 189.813 97.759 Q 188.649 95.419 187.483 93.079 C 152.113 43.944 74.472 78.273 105.925 142.215 C 43.141 140.047 -4.975 198.38 33.688 254.525 C 47.073 273.959 75.082 282.603 108.255 282.603 L 201.465 282.603 Z " fill-rule="evenodd" fill="rgb(32,170,229)"/><path d=" M 202.465 282.771 L 202.465 223.998 L 172.172 223.998 L 172.172 221.647 L 243.409 140.359 Q 278.525 180.5 314.646 221.647 L 314.646 223.998 L 284.353 223.998 L 284.353 282.771 C 314.685 282.771 348.859 282.949 378.139 282.949 C 411.526 280.972 439.851 274.254 453.13 254.558 C 491.757 197.267 436.194 121.789 369.242 146.409 C 392.575 55.405 312.893 10.319 251.951 26.025 C 221.48 33.878 195.695 58.123 189.813 97.037 Q 188.649 94.685 187.483 92.334 C 171.501 70.025 146.89 64.839 127.611 71.783 C 104.223 80.208 88.684 106.487 105.925 141.706 C 43.141 139.528 -4.975 198.143 33.688 254.558 C 47.073 274.086 75.082 282.771 108.255 282.771 L 202.465 282.771 Z " fill="rgb(255,255,255)"/></g></g></svg>